# xmcd
#
# Track frame offsets:
#	150
#	18176
#	40317
#	57928
#	82090
#	101186
#	122016
#	144072
#	164582
#	184424
#
# Disc length: 2709 seconds
#
# Revision: 1
# Processed by: cddbd v1.5.2PL0 Copyright (c) Steve Scherf et al.
# Submitted via: audiograbber 1.83.01
#
DISCID=860a930a
DTITLE=Various Artist - Highmobility Vol.1
DYEAR=1900
DGENRE=Soul
TTITLE0=Bob  Harz - Somebody Loves Me
TTITLE1=Soul Quality Quartet - I'm Not Here
TTITLE2=Hill and Funés - Don't Hesitate
TTITLE3=Georg Levin - Somebody New
TTITLE4=808funk - Moments
TTITLE5=Bob Harz feat. Uli Wolf - Don't Give Up
TTITLE6=Solasoap - Look Around
TTITLE7=Micatone - Sweet Child
TTITLE8=Tania Llinares - Don't Forget To Love Me
TTITLE9=Micatone - A Part Of Me
EXTD=
EXTT0=
EXTT1=
EXTT2=
EXTT3=
EXTT4=
EXTT5=
EXTT6=
EXTT7=
EXTT8=
EXTT9=
PLAYORDER=
